<?xml version="1.0" encoding="UTF-8" standalone="no"?>
<!DOCTYPE svg PUBLIC "-//W3C//DTD SVG 1.1//EN"
 "http://www.w3.org/Graphics/SVG/1.1/DTD/svg11.dtd">
<!-- Generated by graphviz version 15.1.1 (20260805.0921)
 -->
<!-- Title: IEMOEC_framework Pages: 1 -->
<svg width="515pt" height="301pt"
 viewBox="0.00 0.00 515.00 301.00" xmlns="http://www.w3.org/2000/svg" xmlns:xlink="http://www.w3.org/1999/xlink">
<g id="graph0" class="graph" transform="scale(0.457929 0.457929) rotate(0) translate(5.76 651.26)">
<title>IEMOEC_framework</title>
<polygon fill="white" stroke="none" points="-5.76,5.76 -5.76,-651.26 1119.57,-651.26 1119.57,5.76 -5.76,5.76"/>
<text xml:space="preserve" text-anchor="middle" x="556.9" y="-6.42" font-family="Helvetica,sans-Serif" font-size="8.50" fill="#6b7074">LEGEND &#160;&#160;solid arrow: candidate&#45;solution flow &#160;&#160;| &#160;&#160;dotted arrow: phase/control signal &#160;&#160;| &#160;&#160;dashed arrow: outer&#45;loop feedback</text>
<g id="clust1" class="cluster">
<title>cluster_independent</title>
<path fill="white" stroke="#2f3437" stroke-width="1.1" d="M20,-26.5C20,-26.5 502.54,-26.5 502.54,-26.5 508.54,-26.5 514.54,-32.5 514.54,-38.5 514.54,-38.5 514.54,-299.5 514.54,-299.5 514.54,-305.5 508.54,-311.5 502.54,-311.5 502.54,-311.5 20,-311.5 20,-311.5 14,-311.5 8,-305.5 8,-299.5 8,-299.5 8,-38.5 8,-38.5 8,-32.5 14,-26.5 20,-26.5"/>
<text xml:space="preserve" text-anchor="middle" x="134.12" y="-298" font-family="Helvetica,sans-Serif" font-weight="bold" font-size="10.00">1 &#160;INDEPENDENT SUBPOPULATION EVOLUTION</text>
</g>
<g id="clust4" class="cluster">
<title>cluster_combination</title>
<path fill="white" stroke="#6b7074" stroke-width="1.2" stroke-dasharray="5,2" d="M536.54,-236.5C536.54,-236.5 745.81,-236.5 745.81,-236.5 751.81,-236.5 757.81,-242.5 757.81,-248.5 757.81,-248.5 757.81,-407.5 757.81,-407.5 757.81,-413.5 751.81,-419.5 745.81,-419.5 745.81,-419.5 536.54,-419.5 536.54,-419.5 530.54,-419.5 524.54,-413.5 524.54,-407.5 524.54,-407.5 524.54,-248.5 524.54,-248.5 524.54,-242.5 530.54,-236.5 536.54,-236.5"/>
<text xml:space="preserve" text-anchor="middle" x="640.16" y="-406" font-family="Helvetica,sans-Serif" font-weight="bold" font-size="10.00">2 &#160;CROSS&#45;ISLAND EXTREMA COMBINATION</text>
</g>
<g id="clust6" class="cluster">
<title>cluster_global</title>
<path fill="white" stroke="#557a95" stroke-width="1.5" d="M779.81,-339.5C779.81,-339.5 1101.81,-339.5 1101.81,-339.5 1107.81,-339.5 1113.81,-345.5 1113.81,-351.5 1113.81,-351.5 1113.81,-625.5 1113.81,-625.5 1113.81,-631.5 1107.81,-637.5 1101.81,-637.5 1101.81,-637.5 779.81,-637.5 779.81,-637.5 773.81,-637.5 767.81,-631.5 767.81,-625.5 767.81,-625.5 767.81,-351.5 767.81,-351.5 767.81,-345.5 773.81,-339.5 779.81,-339.5"/>
<text xml:space="preserve" text-anchor="middle" x="940.81" y="-624" font-family="Helvetica,sans-Serif" font-weight="bold" font-size="10.00">3 &#160;GLOBAL REFERENCE&#45;DIRECTION ENVIRONMENTAL SELECTION</text>
</g>
<!-- start&#45;&gt;initialize -->
<g id="edge14" class="edge">
<title>start&#45;&gt;initialize</title>
<path fill="none" stroke="#6b7074" stroke-width="0.9" stroke-dasharray="1,5" d="M106.81,-378.1C106.81,-378.1 106.81,-369.85 106.81,-369.85"/>
<polygon fill="#6b7074" stroke="#6b7074" stroke-width="0.9" points="108.98,-369.85 106.81,-363.65 104.64,-369.85 108.98,-369.85"/>
</g>
<!-- initialize&#45;&gt;phase_check -->
<g id="edge16" class="edge">
<title>initialize&#45;&gt;phase_check</title>
<path fill="none" stroke="#6b7074" stroke-width="0.9" stroke-dasharray="1,5" d="M189.5,-325.01C199.24,-325.01 205.81,-325.01 205.81,-325.01 205.81,-325.01 205.81,-83.65 205.81,-83.65 205.81,-83.65 130.45,-83.65 130.45,-83.65"/>
<polygon fill="#6b7074" stroke="#6b7074" stroke-width="0.9" points="130.45,-81.48 124.25,-83.65 130.45,-85.82 130.45,-81.48"/>
</g>
<!-- initialize&#45;&gt;define_islands -->
<g id="edge15" class="edge">
<title>initialize&#45;&gt;define_islands</title>
<path fill="none" stroke="#2f3437" stroke-width="0.9" d="M189.47,-328.99C204.65,-328.99 215.81,-328.99 215.81,-328.99 215.81,-328.99 215.81,-63.54 215.81,-63.54 215.81,-63.54 247.13,-63.54 247.13,-63.54"/>
<polygon fill="#2f3437" stroke="#2f3437" stroke-width="0.9" points="247.13,-65.71 253.33,-63.54 247.13,-61.37 247.13,-65.71"/>
</g>
<!-- phase_check&#45;&gt;aggregation -->
<g id="edge1" class="edge">
<title>phase_check&#45;&gt;aggregation</title>
<path fill="none" stroke="#6b7074" stroke-width="0.9" stroke-dasharray="1,5" d="M106.81,-90.58C106.81,-90.58 106.81,-98.16 106.81,-98.16"/>
<polygon fill="#6b7074" stroke="#6b7074" stroke-width="0.9" points="104.64,-98.16 106.81,-104.36 108.98,-98.16 104.64,-98.16"/>
</g>
<!-- phase_check&#45;&gt;pareto -->
<g id="edge2" class="edge">
<title>phase_check&#45;&gt;pareto</title>
<path fill="none" stroke="#6b7074" stroke-width="0.9" stroke-dasharray="1,5" d="M115.85,-86.98C134.63,-86.98 176.81,-86.98 176.81,-86.98 176.81,-86.98 176.81,-155 176.81,-155"/>
<polygon fill="#6b7074" stroke="#6b7074" stroke-width="0.9" points="174.64,-155 176.81,-161.2 178.98,-155 174.64,-155"/>
</g>
<!-- aggregation&#45;&gt;define_islands -->
<g id="edge3" class="edge">
<title>aggregation&#45;&gt;define_islands</title>
<path fill="none" stroke="#6b7074" stroke-width="0.9" stroke-dasharray="1,5" d="M166.36,-120C210.38,-120 262.81,-120 262.81,-120 262.81,-120 262.81,-84.85 262.81,-84.85"/>
<polygon fill="#6b7074" stroke="#6b7074" stroke-width="0.9" points="264.98,-84.85 262.81,-78.65 260.64,-84.85 264.98,-84.85"/>
</g>
<!-- pareto&#45;&gt;define_islands -->
<g id="edge4" class="edge">
<title>pareto&#45;&gt;define_islands</title>
<path fill="none" stroke="#6b7074" stroke-width="0.9" stroke-dasharray="1,5" d="M185.81,-162.66C185.81,-125.14 185.81,-50.11 185.81,-50.11 185.81,-50.11 247.12,-50.11 247.12,-50.11"/>
<polygon fill="#6b7074" stroke="#6b7074" stroke-width="0.9" points="247.12,-52.28 253.32,-50.11 247.12,-47.94 247.12,-52.28"/>
</g>
<!-- define_islands&#45;&gt;expand -->
<g id="edge5" class="edge">
<title>define_islands&#45;&gt;expand</title>
<path fill="none" stroke="#2f3437" stroke-width="0.9" d="M364.81,-77.4C364.81,-77.4 364.81,-85.04 364.81,-85.04"/>
<polygon fill="#2f3437" stroke="#2f3437" stroke-width="0.9" points="362.64,-85.04 364.81,-91.24 366.98,-85.04 362.64,-85.04"/>
</g>
<!-- expand&#45;&gt;island_bank -->
<g id="edge6" class="edge">
<title>expand&#45;&gt;island_bank</title>
<path fill="none" stroke="#2f3437" stroke-width="0.9" d="M364.81,-134.11C364.81,-134.11 364.81,-142.72 364.81,-142.72"/>
<polygon fill="#2f3437" stroke="#2f3437" stroke-width="0.9" points="362.64,-142.72 364.81,-148.92 366.98,-142.72 362.64,-142.72"/>
</g>
<!-- island_bank&#45;&gt;local_evolution -->
<g id="edge7" class="edge">
<title>island_bank&#45;&gt;local_evolution</title>
<path fill="none" stroke="#2f3437" stroke-width="0.9" d="M364.81,-224.5C364.81,-224.5 364.81,-233.32 364.81,-233.32"/>
<polygon fill="#2f3437" stroke="#2f3437" stroke-width="0.9" points="362.64,-233.32 364.81,-239.52 366.98,-233.32 362.64,-233.32"/>
</g>
<!-- local_evolution&#45;&gt;extract_extrema -->
<g id="edge17" class="edge">
<title>local_evolution&#45;&gt;extract_extrema</title>
<path fill="none" stroke="#2f3437" stroke-width="0.9" d="M504.84,-261.5C504.84,-261.5 547.45,-261.5 547.45,-261.5"/>
<polygon fill="#2f3437" stroke="#2f3437" stroke-width="0.9" points="547.45,-263.67 553.65,-261.5 547.45,-259.33 547.45,-263.67"/>
</g>
<!-- local_evolution&#45;&gt;merge -->
<g id="edge18" class="edge">
<title>local_evolution&#45;&gt;merge</title>
<path fill="none" stroke="#2f3437" stroke-width="0.9" d="M489.81,-240.76C489.81,-236.33 489.81,-232.96 489.81,-232.96 489.81,-232.96 939.81,-232.96 939.81,-232.96 939.81,-232.96 939.81,-341.2 939.81,-341.2"/>
<polygon fill="#2f3437" stroke="#2f3437" stroke-width="0.9" points="937.64,-341.2 939.81,-347.4 941.98,-341.2 937.64,-341.2"/>
</g>
<!-- extract_extrema&#45;&gt;direction_pairing -->
<g id="edge8" class="edge">
<title>extract_extrema&#45;&gt;direction_pairing</title>
<path fill="none" stroke="#2f3437" stroke-width="0.9" d="M640.81,-276.53C640.81,-276.53 640.81,-284.35 640.81,-284.35"/>
<polygon fill="#2f3437" stroke="#2f3437" stroke-width="0.9" points="638.64,-284.35 640.81,-290.55 642.98,-284.35 638.64,-284.35"/>
</g>
<!-- direction_pairing&#45;&gt;combination_offspring -->
<g id="edge9" class="edge">
<title>direction_pairing&#45;&gt;combination_offspring</title>
<path fill="none" stroke="#2f3437" stroke-width="0.9" d="M640.81,-333.4C640.81,-333.4 640.81,-341.04 640.81,-341.04"/>
<polygon fill="#2f3437" stroke="#2f3437" stroke-width="0.9" points="638.64,-341.04 640.81,-347.24 642.98,-341.04 638.64,-341.04"/>
</g>
<!-- combination_offspring&#45;&gt;merge -->
<g id="edge19" class="edge">
<title>combination_offspring&#45;&gt;merge</title>
<path fill="none" stroke="#2f3437" stroke-width="0.9" d="M747.9,-369.5C747.9,-369.5 858.44,-369.5 858.44,-369.5"/>
<polygon fill="#2f3437" stroke="#2f3437" stroke-width="0.9" points="858.44,-371.67 864.64,-369.5 858.44,-367.33 858.44,-371.67"/>
</g>
<!-- merge&#45;&gt;archive_selection -->
<g id="edge10" class="edge">
<title>merge&#45;&gt;archive_selection</title>
<path fill="none" stroke="#2f3437" stroke-width="0.9" d="M939.81,-390.24C939.81,-390.24 939.81,-397.53 939.81,-397.53"/>
<polygon fill="#2f3437" stroke="#2f3437" stroke-width="0.9" points="937.64,-397.53 939.81,-403.73 941.98,-397.53 937.64,-397.53"/>
</g>
<!-- archive_selection&#45;&gt;origin_selection -->
<g id="edge11" class="edge">
<title>archive_selection&#45;&gt;origin_selection</title>
<path fill="none" stroke="#2f3437" stroke-width="0.9" d="M939.81,-435.8C939.81,-435.8 939.81,-443.18 939.81,-443.18"/>
<polygon fill="#2f3437" stroke="#2f3437" stroke-width="0.9" points="937.64,-443.18 939.81,-449.38 941.98,-443.18 937.64,-443.18"/>
</g>
<!-- origin_selection&#45;&gt;termination -->
<g id="edge12" class="edge">
<title>origin_selection&#45;&gt;termination</title>
<path fill="none" stroke="#2f3437" stroke-width="0.9" d="M939.81,-492.48C939.81,-492.48 939.81,-500.11 939.81,-500.11"/>
<polygon fill="#2f3437" stroke="#2f3437" stroke-width="0.9" points="937.64,-500.11 939.81,-506.31 941.98,-500.11 937.64,-500.11"/>
</g>
<!-- termination&#45;&gt;phase_check -->
<g id="edge20" class="edge">
<title>termination&#45;&gt;phase_check</title>
<path fill="none" stroke="#557a95" stroke-width="1.15" stroke-dasharray="5,2" d="M845.81,-531.6C845.81,-492.92 845.81,-80.31 845.81,-80.31 845.81,-80.31 138.28,-80.31 138.28,-80.31"/>
<polygon fill="#557a95" stroke="#557a95" stroke-width="1.15" points="138.28,-78.14 132.08,-80.31 138.28,-82.48 138.28,-78.14"/>
</g>
<!-- termination&#45;&gt;final_population -->
<g id="edge13" class="edge">
<title>termination&#45;&gt;final_population</title>
<path fill="none" stroke="#2f3437" stroke-width="0.9" d="M939.81,-561.46C939.81,-561.46 939.81,-569.75 939.81,-569.75"/>
<polygon fill="#2f3437" stroke="#2f3437" stroke-width="0.9" points="937.64,-569.75 939.81,-575.95 941.98,-569.75 937.64,-569.75"/>
</g>
<!-- start -->
<g id="node1" class="node">
<title>start</title>
<ellipse fill="white" stroke="#2f3437" stroke-width="0.9" cx="107.01" cy="-391.5" rx="27" ry="13.05"/>
<text xml:space="preserve" text-anchor="middle" x="107.01" y="-388.1" font-family="Helvetica,sans-Serif" font-size="9.50" fill="#2f3437">Start</text>
</g>
<!-- initialize -->
<g id="node2" class="node">
<title>initialize</title>
<path fill="white" stroke="#2f3437" stroke-width="0.9" d="M177.27,-361.98C177.27,-361.98 36.75,-361.98 36.75,-361.98 30.75,-361.98 24.75,-355.98 24.75,-349.98 24.75,-349.98 24.75,-333.02 24.75,-333.02 24.75,-327.02 30.75,-321.02 36.75,-321.02 36.75,-321.02 177.27,-321.02 177.27,-321.02 183.27,-321.02 189.27,-327.02 189.27,-333.02 189.27,-333.02 189.27,-349.98 189.27,-349.98 189.27,-355.98 183.27,-361.98 177.27,-361.98"/>
<text xml:space="preserve" text-anchor="middle" x="107.01" y="-349.35" font-family="Helvetica,sans-Serif" font-size="9.50" fill="#2f3437">Initialize origin population P_o</text>
<text xml:space="preserve" text-anchor="middle" x="107.01" y="-338.1" font-family="Helvetica,sans-Serif" font-size="9.50" fill="#2f3437">Float random sampling + evaluation</text>
<text xml:space="preserve" text-anchor="middle" x="107.01" y="-326.85" font-family="Helvetica,sans-Serif" font-size="9.50" fill="#2f3437">A &lt;&#45; P_o</text>
</g>
<!-- phase_check -->
<g id="node3" class="node">
<title>phase_check</title>
<polygon fill="#ddeaf2" stroke="#557a95" stroke-width="1.15" points="107.01,-90.32 47.19,-63.5 107.01,-36.68 166.83,-63.5 107.01,-90.32"/>
<text xml:space="preserve" text-anchor="middle" x="107.01" y="-65.72" font-family="Helvetica,sans-Serif" font-size="9.50" fill="#2f3437">FE / MaxFEs</text>
<text xml:space="preserve" text-anchor="middle" x="107.01" y="-54.48" font-family="Helvetica,sans-Serif" font-size="9.50" fill="#2f3437">&lt; 0.40?</text>
</g>
<!-- aggregation -->
<g id="node4" class="node">
<title>aggregation</title>
<path fill="#ddeaf2" stroke="#557a95" stroke-width="1.15" d="M154.02,-146.97C154.02,-146.97 60,-146.97 60,-146.97 54,-146.97 48,-140.97 48,-134.97 48,-134.97 48,-118.03 48,-118.03 48,-112.03 54,-106.03 60,-106.03 60,-106.03 154.02,-106.03 154.02,-106.03 160.02,-106.03 166.02,-112.03 166.02,-118.03 166.02,-118.03 166.02,-134.97 166.02,-134.97 166.02,-140.97 160.02,-146.97 154.02,-146.97"/>
<text xml:space="preserve" text-anchor="middle" x="107.01" y="-134.35" font-family="Helvetica,sans-Serif" font-size="9.50" fill="#2f3437">YES &#45; Aggregation Phase</text>
<text xml:space="preserve" text-anchor="middle" x="107.01" y="-123.1" font-family="Helvetica,sans-Serif" font-size="9.50" fill="#2f3437">Tchebycheff local survival</text>
<text xml:space="preserve" text-anchor="middle" x="107.01" y="-111.85" font-family="Helvetica,sans-Serif" font-size="9.50" fill="#2f3437">recombination ratio = 1.0</text>
</g>
<!-- pareto -->
<g id="node5" class="node">
<title>pareto</title>
<path fill="#ddeaf2" stroke="#557a95" stroke-width="1.15" d="M184.02,-203.97C184.02,-203.97 30,-203.97 30,-203.97 24,-203.97 18,-197.97 18,-191.97 18,-191.97 18,-175.03 18,-175.03 18,-169.03 24,-163.03 30,-163.03 30,-163.03 184.02,-163.03 184.02,-163.03 190.02,-163.03 196.02,-169.03 196.02,-175.03 196.02,-175.03 196.02,-191.97 196.02,-191.97 196.02,-197.97 190.02,-203.97 184.02,-203.97"/>
<text xml:space="preserve" text-anchor="middle" x="107.01" y="-191.35" font-family="Helvetica,sans-Serif" font-size="9.50" fill="#2f3437">NO &#45; Pareto Phase</text>
<text xml:space="preserve" text-anchor="middle" x="107.01" y="-180.1" font-family="Helvetica,sans-Serif" font-size="9.50" fill="#2f3437">nondominated fronts + weight tie&#45;break</text>
<text xml:space="preserve" text-anchor="middle" x="107.01" y="-168.85" font-family="Helvetica,sans-Serif" font-size="9.50" fill="#2f3437">recombination ratio = 0.25</text>
</g>
<!-- define_islands -->
<g id="node6" class="node">
<title>define_islands</title>
<path fill="white" stroke="#2f3437" stroke-width="0.9" d="M463.66,-76.97C463.66,-76.97 266.89,-76.97 266.89,-76.97 260.89,-76.97 254.89,-70.97 254.89,-64.97 254.89,-64.97 254.89,-48.02 254.89,-48.02 254.89,-42.02 260.89,-36.02 266.89,-36.02 266.89,-36.02 463.66,-36.02 463.66,-36.02 469.66,-36.02 475.66,-42.02 475.66,-48.02 475.66,-48.02 475.66,-64.97 475.66,-64.97 475.66,-70.97 469.66,-76.97 463.66,-76.97"/>
<text xml:space="preserve" text-anchor="middle" x="365.28" y="-64.35" font-family="Helvetica,sans-Serif" font-size="9.50" fill="#2f3437">Build 2M independent islands each round</text>
<text xml:space="preserve" text-anchor="middle" x="365.28" y="-53.1" font-family="Helvetica,sans-Serif" font-size="9.50" fill="#2f3437">M axial weights + M random aggregation weights</text>
<text xml:space="preserve" text-anchor="middle" x="365.28" y="-41.85" font-family="Helvetica,sans-Serif" font-size="9.50" fill="#2f3437">select one origin ancestor per island</text>
</g>
<!-- expand -->
<g id="node7" class="node">
<title>expand</title>
<path fill="white" stroke="#2f3437" stroke-width="0.9" d="M451.66,-133.97C451.66,-133.97 278.89,-133.97 278.89,-133.97 272.89,-133.97 266.89,-127.97 266.89,-121.97 266.89,-121.97 266.89,-105.03 266.89,-105.03 266.89,-99.03 272.89,-93.03 278.89,-93.03 278.89,-93.03 451.66,-93.03 451.66,-93.03 457.66,-93.03 463.66,-99.03 463.66,-105.03 463.66,-105.03 463.66,-121.97 463.66,-121.97 463.66,-127.97 457.66,-133.97 451.66,-133.97"/>
<text xml:space="preserve" text-anchor="middle" x="365.28" y="-121.35" font-family="Helvetica,sans-Serif" font-size="9.50" fill="#2f3437">Single&#45;ancestor island expansion</text>
<text xml:space="preserve" text-anchor="middle" x="365.28" y="-110.1" font-family="Helvetica,sans-Serif" font-size="9.50" fill="#2f3437">clone selected origin + Polynomial Mutation</text>
<text xml:space="preserve" text-anchor="middle" x="365.28" y="-98.85" font-family="Helvetica,sans-Serif" font-size="9.50" fill="#2f3437">evaluate mutated copies</text>
</g>
<!-- island_bank -->
<g id="node8" class="node">
<title>island_bank</title>
<polygon fill="#f4f5f6" stroke="#2f3437" points="259.26,-150.6 259.26,-224.4 471.3,-224.4 471.3,-150.6 259.26,-150.6"/>
<text xml:space="preserve" text-anchor="middle" x="338.52" y="-184.1" font-family="Helvetica,sans-Serif" font-size="9.50" fill="#2f3437">2M ISLANDS (representative view)</text>
<polyline fill="none" stroke="#2f3437" points="417.78,-150.6 417.78,-224.4"/>
<text xml:space="preserve" text-anchor="middle" x="444.54" y="-211.78" font-family="Helvetica,sans-Serif" font-size="9.50" fill="#2f3437">Island 1</text>
<polyline fill="none" stroke="#2f3437" points="417.78,-205.95 471.3,-205.95"/>
<text xml:space="preserve" text-anchor="middle" x="444.54" y="-193.32" font-family="Helvetica,sans-Serif" font-size="9.50" fill="#2f3437">Island 2</text>
<polyline fill="none" stroke="#2f3437" points="417.78,-187.5 471.3,-187.5"/>
<text xml:space="preserve" text-anchor="middle" x="444.54" y="-174.88" font-family="Helvetica,sans-Serif" font-size="9.50" fill="#2f3437">...</text>
<polyline fill="none" stroke="#2f3437" points="417.78,-169.05 471.3,-169.05"/>
<text xml:space="preserve" text-anchor="middle" x="444.54" y="-156.42" font-family="Helvetica,sans-Serif" font-size="9.50" fill="#2f3437">Island 2M</text>
</g>
<!-- local_evolution -->
<g id="node9" class="node">
<title>local_evolution</title>
<path fill="white" stroke="#2f3437" stroke-width="0.9" d="M492.54,-281.98C492.54,-281.98 238.02,-281.98 238.02,-281.98 232.02,-281.98 226.02,-275.98 226.02,-269.98 226.02,-269.98 226.02,-253.03 226.02,-253.03 226.02,-247.03 232.02,-241.03 238.02,-241.03 238.02,-241.03 492.54,-241.03 492.54,-241.03 498.54,-241.03 504.54,-247.03 504.54,-253.03 504.54,-253.03 504.54,-269.98 504.54,-269.98 504.54,-275.98 498.54,-281.98 492.54,-281.98"/>
<text xml:space="preserve" text-anchor="middle" x="365.28" y="-269.35" font-family="Helvetica,sans-Serif" font-size="9.50" fill="#2f3437">Independent evolution in every island</text>
<text xml:space="preserve" text-anchor="middle" x="365.28" y="-258.1" font-family="Helvetica,sans-Serif" font-size="9.50" fill="#2f3437">one generation: random pairing &#45;&gt; SBX &#45;&gt; Polynomial Mutation</text>
<text xml:space="preserve" text-anchor="middle" x="365.28" y="-246.85" font-family="Helvetica,sans-Serif" font-size="9.50" fill="#2f3437">evaluation &#45;&gt; phase&#45;specific local survival</text>
</g>
<!-- extract_extrema -->
<g id="node10" class="node">
<title>extract_extrema</title>
<path fill="white" stroke="#2f3437" stroke-width="0.9" d="M717.28,-276.35C717.28,-276.35 565.06,-276.35 565.06,-276.35 560.12,-276.35 555.16,-271.4 555.16,-266.45 555.16,-266.45 555.16,-256.55 555.16,-256.55 555.16,-251.6 560.12,-246.65 565.06,-246.65 565.06,-246.65 717.28,-246.65 717.28,-246.65 722.23,-246.65 727.18,-251.6 727.18,-256.55 727.18,-256.55 727.18,-266.45 727.18,-266.45 727.18,-271.4 722.23,-276.35 717.28,-276.35"/>
<text xml:space="preserve" text-anchor="middle" x="641.17" y="-263.73" font-family="Helvetica,sans-Serif" font-size="9.50" fill="#2f3437">Extract one local extremum per island</text>
<text xml:space="preserve" text-anchor="middle" x="641.17" y="-252.47" font-family="Helvetica,sans-Serif" font-size="9.50" fill="#2f3437">minimum weighted Tchebycheff score</text>
</g>
<!-- direction_pairing -->
<g id="node11" class="node">
<title>direction_pairing</title>
<path fill="white" stroke="#2f3437" stroke-width="0.9" d="M700.18,-332.98C700.18,-332.98 582.16,-332.98 582.16,-332.98 576.16,-332.98 570.16,-326.98 570.16,-320.98 570.16,-320.98 570.16,-304.02 570.16,-304.02 570.16,-298.02 576.16,-292.02 582.16,-292.02 582.16,-292.02 700.18,-292.02 700.18,-292.02 706.18,-292.02 712.18,-298.02 712.18,-304.02 712.18,-304.02 712.18,-320.98 712.18,-320.98 712.18,-326.98 706.18,-332.98 700.18,-332.98"/>
<text xml:space="preserve" text-anchor="middle" x="641.17" y="-320.35" font-family="Helvetica,sans-Serif" font-size="9.50" fill="#2f3437">Pair extrema from least&#45;similar</text>
<text xml:space="preserve" text-anchor="middle" x="641.17" y="-309.1" font-family="Helvetica,sans-Serif" font-size="9.50" fill="#2f3437">normalized weight directions</text>
<text xml:space="preserve" text-anchor="middle" x="641.17" y="-297.85" font-family="Helvetica,sans-Serif" font-size="9.50" fill="#2f3437">up to 2 partners per extremum</text>
</g>
<!-- combination_offspring -->
<g id="node12" class="node">
<title>combination_offspring</title>
<path fill="white" stroke="#2f3437" stroke-width="0.9" d="M735.81,-389.98C735.81,-389.98 546.54,-389.98 546.54,-389.98 540.54,-389.98 534.54,-383.98 534.54,-377.98 534.54,-377.98 534.54,-361.02 534.54,-361.02 534.54,-355.02 540.54,-349.02 546.54,-349.02 546.54,-349.02 735.81,-349.02 735.81,-349.02 741.81,-349.02 747.81,-355.02 747.81,-361.02 747.81,-361.02 747.81,-377.98 747.81,-377.98 747.81,-383.98 741.81,-389.98 735.81,-389.98"/>
<text xml:space="preserve" text-anchor="middle" x="641.17" y="-377.35" font-family="Helvetica,sans-Serif" font-size="9.50" fill="#2f3437">Extrema Combination</text>
<text xml:space="preserve" text-anchor="middle" x="641.17" y="-366.1" font-family="Helvetica,sans-Serif" font-size="9.50" fill="#2f3437">SBX + Polynomial Mutation + evaluation</text>
<text xml:space="preserve" text-anchor="middle" x="641.17" y="-354.85" font-family="Helvetica,sans-Serif" font-size="9.50" fill="#2f3437">phase budget: 1.0 (Aggregation) / 0.25 (Pareto)</text>
</g>
<!-- merge -->
<g id="node13" class="node">
<title>merge</title>
<path fill="white" stroke="#2f3437" stroke-width="0.9" d="M1002.32,-389.98C1002.32,-389.98 878.3,-389.98 878.3,-389.98 872.3,-389.98 866.3,-383.98 866.3,-377.98 866.3,-377.98 866.3,-361.02 866.3,-361.02 866.3,-355.02 872.3,-349.02 878.3,-349.02 878.3,-349.02 1002.32,-349.02 1002.32,-349.02 1008.32,-349.02 1014.32,-355.02 1014.32,-361.02 1014.32,-361.02 1014.32,-377.98 1014.32,-377.98 1014.32,-383.98 1008.32,-389.98 1002.32,-389.98"/>
<text xml:space="preserve" text-anchor="middle" x="940.31" y="-377.35" font-family="Helvetica,sans-Serif" font-size="9.50" fill="#2f3437">Merge candidate solutions</text>
<text xml:space="preserve" text-anchor="middle" x="940.31" y="-366.1" font-family="Helvetica,sans-Serif" font-size="9.50" fill="#2f3437">A + P_o + all island populations</text>
<text xml:space="preserve" text-anchor="middle" x="940.31" y="-354.85" font-family="Helvetica,sans-Serif" font-size="9.50" fill="#2f3437">+ extrema&#45;combination offspring</text>
</g>
<!-- archive_selection -->
<g id="node14" class="node">
<title>archive_selection</title>
<path fill="#ddeaf2" stroke="#557a95" stroke-width="1.15" d="M1013.79,-435.35C1013.79,-435.35 866.82,-435.35 866.82,-435.35 861.88,-435.35 856.92,-430.4 856.92,-425.45 856.92,-425.45 856.92,-415.55 856.92,-415.55 856.92,-410.6 861.88,-405.65 866.82,-405.65 866.82,-405.65 1013.79,-405.65 1013.79,-405.65 1018.74,-405.65 1023.69,-410.6 1023.69,-415.55 1023.69,-415.55 1023.69,-425.45 1023.69,-425.45 1023.69,-430.4 1018.74,-435.35 1013.79,-435.35"/>
<text xml:space="preserve" text-anchor="middle" x="940.31" y="-422.73" font-family="Helvetica,sans-Serif" font-size="9.50" fill="#2f3437">NSGA&#45;III ReferenceDirectionSurvival</text>
<text xml:space="preserve" text-anchor="middle" x="940.31" y="-411.48" font-family="Helvetica,sans-Serif" font-size="9.50" fill="#2f3437">A &lt;&#45; global candidate pool (size N)</text>
</g>
<!-- origin_selection -->
<g id="node15" class="node">
<title>origin_selection</title>
<path fill="#ddeaf2" stroke="#557a95" stroke-width="1.15" d="M1011.69,-491.98C1011.69,-491.98 868.92,-491.98 868.92,-491.98 862.92,-491.98 856.92,-485.98 856.92,-479.98 856.92,-479.98 856.92,-463.02 856.92,-463.02 856.92,-457.02 862.92,-451.02 868.92,-451.02 868.92,-451.02 1011.69,-451.02 1011.69,-451.02 1017.69,-451.02 1023.69,-457.02 1023.69,-463.02 1023.69,-463.02 1023.69,-479.98 1023.69,-479.98 1023.69,-485.98 1017.69,-491.98 1011.69,-491.98"/>
<text xml:space="preserve" text-anchor="middle" x="940.31" y="-479.35" font-family="Helvetica,sans-Serif" font-size="9.50" fill="#2f3437">NSGA&#45;III ReferenceDirectionSurvival</text>
<text xml:space="preserve" text-anchor="middle" x="940.31" y="-468.1" font-family="Helvetica,sans-Serif" font-size="9.50" fill="#2f3437">P_o &lt;&#45; select origin from A</text>
<text xml:space="preserve" text-anchor="middle" x="940.31" y="-456.85" font-family="Helvetica,sans-Serif" font-size="9.50" fill="#2f3437">|P_o| = min(N, max(20, ceil(0.2N)))</text>
</g>
<!-- termination -->
<g id="node16" class="node">
<title>termination</title>
<polygon fill="white" stroke="#2f3437" stroke-width="0.9" points="940.31,-561.32 835.49,-534.5 940.31,-507.68 1045.13,-534.5 940.31,-561.32"/>
<text xml:space="preserve" text-anchor="middle" x="940.31" y="-536.73" font-family="Helvetica,sans-Serif" font-size="9.50" fill="#2f3437">MaxFEs reached?</text>
<text xml:space="preserve" text-anchor="middle" x="940.31" y="-525.48" font-family="Helvetica,sans-Serif" font-size="9.50" fill="#2f3437">NO: next outer iteration</text>
</g>
<!-- final_population -->
<g id="node17" class="node">
<title>final_population</title>
<path fill="white" stroke="#2f3437" stroke-width="0.9" d="M1021.29,-607.35C1021.29,-607.35 859.32,-607.35 859.32,-607.35 854.38,-607.35 849.42,-602.4 849.42,-597.45 849.42,-597.45 849.42,-587.55 849.42,-587.55 849.42,-582.6 854.38,-577.65 859.32,-577.65 859.32,-577.65 1021.29,-577.65 1021.29,-577.65 1026.24,-577.65 1031.19,-582.6 1031.19,-587.55 1031.19,-587.55 1031.19,-597.45 1031.19,-597.45 1031.19,-602.4 1026.24,-607.35 1021.29,-607.35"/>
<text xml:space="preserve" text-anchor="middle" x="940.31" y="-594.73" font-family="Helvetica,sans-Serif" font-size="9.50" fill="#2f3437">YES &#45; Final reference&#45;direction selection</text>
<text xml:space="preserve" text-anchor="middle" x="940.31" y="-583.48" font-family="Helvetica,sans-Serif" font-size="9.50" fill="#2f3437">Return final population</text>
</g>
</g>
</svg>
